<svg xmlns="http://www.w3.org/2000/svg" width="1024" height="512" viewBox="0 0 1024 512"><rect width="100%" height="100%" fill="#DDDDDD"/><path fill="#999999" d="M206 214.94h17.48l17.03 49.25h.28l17.16-49.25h17.54v66.83h-13.41v-19.92l1.29-29.51-.28-.05-17.9 49.48h-8.99l-17.81-49.29-.28.04 1.29 29.33v19.92H206v-66.83Zm95 17.17v49.66h-13.4v-49.66H301Zm0-21.94v10.05h-13.4v-10.05H301Zm37.87 57.92q0-2.2-2.13-3.81-2.14-1.6-7.92-2.84-8.81-1.79-13.29-5.3-4.47-3.52-4.47-9.57 0-6.43 5.39-10.9 5.39-4.48 14.43-4.48 9.51 0 15.13 4.45 5.62 4.45 5.39 11.25l-.09.27h-12.94q0-2.98-1.91-4.86-1.9-1.88-5.58-1.88-3.25 0-5.11 1.58-1.86 1.58-1.86 3.97 0 2.29 1.95 3.76 1.95 1.47 7.92 2.62 9.18 1.84 13.63 5.39 4.45 3.56 4.45 9.8 0 6.7-5.74 10.95-5.73 4.24-15.14 4.24-9.92 0-15.68-5.02-5.76-5.03-5.48-11.45l.09-.28h12.25q.14 3.99 2.62 5.78t6.47 1.79q3.72 0 5.67-1.46 1.95-1.47 1.95-4Zm48.47 0q0-2.2-2.13-3.81-2.14-1.6-7.92-2.84-8.81-1.79-13.29-5.3-4.47-3.52-4.47-9.57 0-6.43 5.39-10.9 5.39-4.48 14.43-4.48 9.5 0 15.13 4.45 5.62 4.45 5.39 11.25l-.09.27h-12.95q0-2.98-1.9-4.86-1.9-1.88-5.58-1.88-3.26 0-5.11 1.58-1.86 1.58-1.86 3.97 0 2.29 1.95 3.76 1.95 1.47 7.92 2.62 9.17 1.84 13.63 5.39 4.45 3.56 4.45 9.8 0 6.7-5.74 10.95-5.74 4.24-15.14 4.24-9.92 0-15.68-5.02-5.76-5.03-5.48-11.45l.09-.28h12.25q.14 3.99 2.62 5.78t6.47 1.79q3.72 0 5.67-1.46 1.95-1.47 1.95-4Zm35.71-35.98v49.66h-13.4v-49.66h13.4Zm0-21.94v10.05h-13.4v-10.05h13.4Zm10.78 21.94h12.49l.6 7.11q2.47-3.81 6.1-5.92 3.63-2.11 8.12-2.11 7.53 0 11.75 4.73 4.23 4.72 4.23 14.82v31.03h-13.45v-30.98q0-5-2.02-7.09t-6.11-2.09q-2.66 0-4.77 1.08-2.11 1.08-3.53 3.05v36.03h-13.41v-49.66Zm51.23 26.21v-.97q0-11.75 5.12-18.95 5.11-7.21 14.34-7.21 4.18 0 7.34 1.88 3.17 1.88 5.42 5.37l1.05-6.33h11.57v49.43q0 9.69-6.36 14.99-6.35 5.3-17.69 5.3-3.76 0-7.99-1.04-4.22-1.03-7.8-2.82l2.48-10q3.07 1.47 6.26 2.22 3.19.76 6.96.76 5.51 0 8.1-2.3 2.59-2.29 2.59-7.16V277q-2.2 2.8-5.18 4.27-2.99 1.46-6.84 1.46-9.14 0-14.25-6.72-5.12-6.72-5.12-17.69Zm13.4-.97v.97q0 6.51 2.2 10.25 2.21 3.74 7.16 3.74 3.08 0 5.21-1.12 2.14-1.12 3.42-3.28v-21.57q-1.28-2.25-3.42-3.49-2.13-1.24-5.11-1.24-4.92 0-7.19 4.36-2.27 4.36-2.27 11.38Zm80.46-42.41v66.83h-13.4v-66.83h13.4Zm12.25 17.17h12.44l.55 6.56q2.39-3.58 5.99-5.53 3.61-1.95 8.33-1.95 4.78 0 8.17 2.11 3.4 2.11 5.14 6.38 2.3-3.99 5.97-6.24t8.63-2.25q7.34 0 11.59 5.07t4.25 15.45v30.06h-13.41v-30.11q0-5.64-1.83-7.85-1.84-2.2-5.46-2.2-2.85 0-4.94 1.26-2.09 1.26-3.33 3.51 0 .87.05 1.49t.05 1.27v32.63H620v-30.11q0-5.51-1.84-7.78-1.83-2.27-5.5-2.27-2.71 0-4.76 1.03-2.04 1.03-3.37 2.92v36.21h-13.36v-49.66Zm123.88 49.66h-13.4q-.73-1.7-1.26-3.58-.53-1.88-.76-3.86-2.06 3.63-5.44 6.02-3.37 2.38-8.05 2.38-7.8 0-12.03-4.01-4.22-4.02-4.22-10.95 0-7.3 5.62-11.31 5.63-4.02 16.41-4.02h7.48v-3.95q0-3.58-1.88-5.55-1.88-1.97-5.55-1.97-3.26 0-5.03 1.58-1.77 1.58-1.77 4.38l-12.94-.04-.04-.28q-.33-6.29 5.46-10.85 5.78-4.57 15.19-4.57 8.9 0 14.46 4.52 5.55 4.52 5.55 12.88v20.51q0 3.49.53 6.57.53 3.07 1.67 6.1Zm-25.65-8.95q3.53 0 6.29-1.74 2.75-1.75 3.71-4.04v-7.03h-7.48q-4.27 0-6.47 2.14-2.2 2.13-2.2 5.16 0 2.48 1.65 4 1.65 1.51 4.5 1.51Zm31.53-14.5v-.97q0-11.75 5.12-18.95 5.12-7.21 14.34-7.21 4.18 0 7.34 1.88 3.17 1.88 5.42 5.37l1.06-6.33h11.56v49.43q0 9.69-6.35 14.99-6.36 5.3-17.7 5.3-3.76 0-7.98-1.04-4.23-1.03-7.81-2.82l2.48-10q3.08 1.47 6.27 2.22 3.19.76 6.95.76 5.51 0 8.1-2.3 2.59-2.29 2.59-7.16V277q-2.2 2.8-5.18 4.27-2.99 1.46-6.84 1.46-9.13 0-14.25-6.72-5.12-6.72-5.12-17.69Zm13.4-.97v.97q0 6.51 2.21 10.25 2.2 3.74 7.16 3.74 3.07 0 5.2-1.12 2.14-1.12 3.42-3.28v-21.57q-1.28-2.25-3.42-3.49-2.13-1.24-5.11-1.24-4.91 0-7.19 4.36-2.27 4.36-2.27 11.38Zm63.71 25.38q-10.74 0-17.17-6.88-6.42-6.89-6.42-17.49v-1.83q0-11.07 6.08-18.23t16.32-7.11q10.05 0 15.6 6.06 5.55 6.06 5.55 16.38v7.3h-29.65l-.09.28q.37 4.91 3.28 8.08 2.92 3.16 7.92 3.16 4.45 0 7.39-.89 2.94-.9 6.43-2.83l3.62 8.27q-3.03 2.48-7.94 4.1-4.91 1.63-10.92 1.63Zm-1.19-41.21q-3.72 0-5.88 2.84-2.16 2.85-2.66 7.48l.14.23h16.43v-1.19q0-4.27-2-6.82-2-2.54-6.03-2.54Z"/></svg>